# xmcd
#
# Track frame offsets:
#	150
#	16525
#	34162
#	53010
#	73467
#	90955
#	110962
#	131530
#	146972
#	165432
#	183295
#	203480
#	219860
#	237942
#	255695
#
# Disc length: 3626 seconds
#
# Revision: 7
# Processed by: cddbd v1.5.2PL0 Copyright (c) Steve Scherf et al.
# Submitted via: EZCDAudioConverter 8.2.2.1
#
DISCID=cc0e280f
DTITLE=ZEZÉ DI CAMARGO and LUCIANO - TARDE DEMAIS [CD 2-495848) COLUMBIA
DYEAR=2000
DGENRE=Musical
TTITLE0=TARDE DEMAIS (PART. ESP. CHRYSTIAN) (BY GILMAR SINISTRO)
TTITLE1=SEM VOCÊ (BY GILMAR SINISTRO)
TTITLE2=ANTES DE VOLTAR PRA CASA (BY GILMAR SINISTRO)
TTITLE3=DOU A VIDA POR UM BEIJO (BY GILMAR SINISTRO)
TTITLE4=O QUE É QUE EU FAÇO (BY GILMAR SINISTRO)
TTITLE5=DEMOROU DEMAIS (BY GILMAR SINISTRO)
TTITLE6=A SAUDADE É UMA PEDRA (BY GILMAR SINISTRO)
TTITLE7=DO JEITO QUE A MOÇADA GOSTA (BY GILMAR SINISTRO)
TTITLE8=VOCÊ NÃO É MAIS ASSIM (BY GILMAR SINISTRO)
TTITLE9=SAUDADE DE NÓS DOIS (BY GILMAR SINISTRO)
TTITLE10=DEVE SER AMOR (BY GILMAR SINISTRO)
TTITLE11=VOU LEVAR VOCÊ (BY GILMAR SINISTRO)
TTITLE12=TRANQUE A PORTA E ME BEIJA (BY GILMAR SINISTRO)
TTITLE13=O BICHO VAI PEGAR (BY GILMAR SINISTRO)
TTITLE14=AINDA SOU O MESMO HOMEM (BY GILMAR SINISTRO)
EXTD=
EXTT0=
EXTT1=
EXTT2=
EXTT3=
EXTT4=
EXTT5=
EXTT6=
EXTT7=
EXTT8=
EXTT9=
EXTT10=
EXTT11=
EXTT12=
EXTT13=
EXTT14=
PLAYORDER=
